<?xml version="1.0" encoding="UTF-8"?>
<svg xmlns="http://www.w3.org/2000/svg" version="1.1" viewBox="0 0 1223.2 236.6">
  <!-- Generator: Adobe Illustrator 28.6.0, SVG Export Plug-In . SVG Version: 1.2.0 Build 709)  -->
  <g>
    <g id="Layer_1">
      <g style="isolation: isolate;">
        <g style="isolation: isolate;">
          <path d="M32.2,68.7l.5,12.3c8.1-9.6,19.1-14.4,32.9-14.4s26.1,5.9,31.7,17.8c3.7-5.3,8.5-9.6,14.4-12.9,5.9-3.3,12.9-4.9,21-4.9,24.3,0,36.7,12.9,37.1,38.7v74.3h-19v-73.2c0-7.9-1.8-13.9-5.4-17.8-3.6-3.9-9.7-5.9-18.3-5.9s-12.9,2.1-17.5,6.3c-4.6,4.2-7.3,9.9-8.1,17v73.6h-19.1v-72.7c0-16.1-7.9-24.2-23.7-24.2s-21,5.3-25.5,15.9v81H14.3v-110.9h17.9Z" style="fill: #fff;"/>
          <path d="M234.7,151.9l25.8-83.2h20.3l-44.6,128.1c-6.9,18.5-17.9,27.7-32.9,27.7l-3.6-.3-7.1-1.3v-15.4l5.1.4c6.4,0,11.4-1.3,15-3.9,3.6-2.6,6.5-7.3,8.9-14.3l4.2-11.3-39.6-109.7h20.7l27.7,83.2Z" style="fill: #fff;"/>
        </g>
        <g style="isolation: isolate;">
          <path d="M462.6,132.3c-1.8,15.8-7.7,28-17.5,36.6-9.8,8.6-22.9,12.9-39.1,12.9s-31.8-6.3-42.4-19c-10.6-12.6-15.9-29.6-15.9-50.8v-14.4c0-13.9,2.5-26.1,7.4-36.6,5-10.5,12-18.6,21.1-24.3,9.1-5.6,19.6-8.5,31.6-8.5s28.6,4.4,38.1,13.3c9.6,8.9,15.1,21.1,16.7,36.8h-19.8c-1.7-11.9-5.4-20.6-11.1-25.9-5.7-5.3-13.7-8-23.9-8s-22.4,4.7-29.6,14c-7.1,9.3-10.7,22.5-10.7,39.7v14.5c0,16.2,3.4,29.1,10.2,38.7,6.8,9.6,16.2,14.4,28.4,14.4s19.3-2.5,25.2-7.4c5.8-5,9.7-13.6,11.6-25.9h19.8Z" style="fill: #f2913d;"/>
        </g>
        <g style="isolation: isolate;">
          <path d="M481.4,123.2c0-10.9,2.1-20.6,6.4-29.3,4.3-8.7,10.2-15.4,17.8-20.1,7.6-4.7,16.3-7.1,26.1-7.1,15.1,0,27.3,5.2,36.7,15.7s14,24.4,14,41.7v1.3c0,10.8-2.1,20.5-6.2,29.1-4.1,8.6-10,15.3-17.7,20-7.7,4.8-16.5,7.2-26.5,7.2-15,0-27.2-5.2-36.6-15.7s-14-24.3-14-41.5v-1.3ZM500.5,125.4c0,12.3,2.9,22.2,8.6,29.6,5.7,7.5,13.3,11.2,22.9,11.2s17.3-3.8,23-11.3c5.7-7.6,8.5-18.1,8.5-31.7s-2.9-22-8.7-29.6c-5.8-7.6-13.5-11.3-23-11.3s-16.9,3.7-22.7,11.2c-5.7,7.5-8.6,18.1-8.6,32Z" style="fill: #fff;"/>
          <path d="M624.1,68.7l.5,12.3c8.1-9.6,19.1-14.4,32.9-14.4s26.1,5.9,31.7,17.8c3.7-5.3,8.5-9.6,14.4-12.9,5.9-3.3,12.9-4.9,21-4.9,24.3,0,36.7,12.9,37.1,38.7v74.3h-19v-73.2c0-7.9-1.8-13.9-5.4-17.8-3.6-3.9-9.7-5.9-18.3-5.9s-12.9,2.1-17.5,6.3c-4.6,4.2-7.3,9.9-8.1,17v73.6h-19.1v-72.7c0-16.1-7.9-24.2-23.7-24.2s-21,5.3-25.5,15.9v81h-19v-110.9h17.9Z" style="fill: #fff;"/>
          <path d="M884,125.4c0,16.9-3.9,30.5-11.6,40.8-7.7,10.3-18.2,15.5-31.4,15.5s-24.1-4.3-31.8-12.8v53.4h-19V68.7h17.3l.9,12.3c7.7-9.6,18.5-14.4,32.2-14.4s23.9,5,31.6,15.1c7.8,10,11.6,24,11.6,41.9v1.7ZM865,123.3c0-12.5-2.7-22.4-8-29.6-5.3-7.2-12.6-10.9-21.9-10.9s-20.1,5.1-25.8,15.3v53c5.7,10.1,14.4,15.2,26,15.2s16.3-3.6,21.7-10.8c5.4-7.2,8-17.9,8-32.1Z" style="fill: #fff;"/>
          <path d="M976.6,179.7c-1.1-2.2-2-6.1-2.7-11.7-8.8,9.2-19.3,13.7-31.6,13.7s-19.9-3.1-26.9-9.3c-7-6.2-10.5-14-10.5-23.5s4.4-20.5,13.2-26.9c8.8-6.4,21.1-9.6,37.1-9.6h18.5v-8.7c0-6.6-2-11.9-5.9-15.8-4-3.9-9.8-5.9-17.5-5.9s-12.4,1.7-17,5.1c-4.6,3.4-6.9,7.6-6.9,12.4h-19.1c0-5.5,2-10.9,5.9-16,3.9-5.2,9.3-9.2,16-12.3,6.7-3,14.1-4.5,22.2-4.5,12.8,0,22.8,3.2,30,9.6,7.2,6.4,11,15.2,11.3,26.4v51.1c0,10.2,1.3,18.3,3.9,24.3v1.6h-19.9ZM945.1,165.2c5.9,0,11.6-1.5,16.9-4.6s9.2-7.1,11.6-12v-22.8h-14.9c-23.2,0-34.9,6.8-34.9,20.4s2,10.6,5.9,13.9c4,3.4,9.1,5,15.3,5Z" style="fill: #fff;"/>
          <path d="M1040.3,68.7l.6,13.9c8.5-10.7,19.5-16,33.2-16,23.4,0,35.3,13.2,35.5,39.7v73.3h-19v-73.4c0-8-1.9-13.9-5.5-17.7-3.6-3.8-9.2-5.7-16.8-5.7s-11.6,1.6-16.2,4.9c-4.6,3.3-8.3,7.6-10.9,12.9v79.1h-19v-110.9h17.9Z" style="fill: #fff;"/>
        </g>
        <g style="isolation: isolate;">
          <path d="M1174.5,151.9l25.8-83.2h20.3l-44.6,128.1c-6.9,18.5-17.9,27.7-32.9,27.7l-3.6-.3-7.1-1.3v-15.4l5.1.4c6.4,0,11.4-1.3,15-3.9,3.6-2.6,6.5-7.3,8.9-14.3l4.2-11.3-39.6-109.7h20.7l27.7,83.2Z" style="fill: #f2913d;"/>
        </g>
      </g>
      <path d="M548.5,123.8l-19,16.8c-2.5,2.2-6.5.8-7.2-2.5l-5.1-24.5c-.7-3.4,2.4-6.3,5.6-5.2l24.2,7.7c3.3,1.1,4.2,5.5,1.6,7.8h0Z" style="fill: #f2913d;"/>
    </g>
  </g>
</svg>